<svg height="862" width="720" xmlns="http://www.w3.org/2000/svg">
<rect height="862" fill="#555" width="720"></rect>
<text fill="#7f7" font-family="Courier New" font-size="12" xml:space="preserve">
<tspan x="10" y="26">└─┬ robotjs@0.4.7 </tspan>
<tspan x="10" y="42">  ├── nan@2.5.1 </tspan>
<tspan x="10" y="58">  └─┬ prebuild-install@2.1.1 </tspan>
<tspan x="10" y="74">    ├── expand-template@1.0.3 </tspan>
<tspan x="10" y="90">    ├── github-from-package@0.0.0 </tspan>
<tspan x="10" y="106">    ├── minimist@1.2.0 </tspan>
<tspan x="10" y="122">    ├── node-abi@2.0.0 </tspan>
<tspan x="10" y="138">    ├── noop-logger@0.1.1 </tspan>
<tspan x="10" y="154">    ├─┬ npmlog@4.0.2 </tspan>
<tspan x="10" y="170">    │ ├─┬ are-we-there-yet@1.1.2 </tspan>
<tspan x="10" y="186">    │ │ ├── delegates@1.0.0 </tspan>
<tspan x="10" y="202">    │ │ └─┬ readable-stream@2.2.6 </tspan>
<tspan x="10" y="218">    │ │   ├── buffer-shims@1.0.0 </tspan>
<tspan x="10" y="234">    │ │   ├── core-util-is@1.0.2 </tspan>
<tspan x="10" y="250">    │ │   ├── inherits@2.0.3 </tspan>
<tspan x="10" y="266">    │ │   ├── isarray@1.0.0 </tspan>
<tspan x="10" y="282">    │ │   ├── process-nextick-args@1.0.7 </tspan>
<tspan x="10" y="298">    │ │   ├── string_decoder@0.10.31 </tspan>
<tspan x="10" y="314">    │ │   └── util-deprecate@1.0.2 </tspan>
<tspan x="10" y="330">    │ ├── console-control-strings@1.1.0 </tspan>
<tspan x="10" y="346">    │ ├─┬ gauge@2.7.3 </tspan>
<tspan x="10" y="362">    │ │ ├── aproba@1.1.1 </tspan>
<tspan x="10" y="378">    │ │ ├── has-unicode@2.0.1 </tspan>
<tspan x="10" y="394">    │ │ ├── object-assign@4.1.1 </tspan>
<tspan x="10" y="410">    │ │ ├── signal-exit@3.0.2 </tspan>
<tspan x="10" y="426">    │ │ ├─┬ string-width@1.0.2 </tspan>
<tspan x="10" y="442">    │ │ │ ├── code-point-at@1.1.0 </tspan>
<tspan x="10" y="458">    │ │ │ └─┬ is-fullwidth-code-point@1.0.0 </tspan>
<tspan x="10" y="474">    │ │ │   └── number-is-nan@1.0.1 </tspan>
<tspan x="10" y="490">    │ │ ├─┬ strip-ansi@3.0.1 </tspan>
<tspan x="10" y="506">    │ │ │ └── ansi-regex@2.1.1 </tspan>
<tspan x="10" y="522">    │ │ └── wide-align@1.1.0 </tspan>
<tspan x="10" y="538">    │ └── set-blocking@2.0.0 </tspan>
<tspan x="10" y="554">    ├── os-homedir@1.0.2 </tspan>
<tspan x="10" y="570">    ├─┬ pump@1.0.2 </tspan>
<tspan x="10" y="586">    │ ├── end-of-stream@1.4.0 </tspan>
<tspan x="10" y="602">    │ └─┬ once@1.4.0 </tspan>
<tspan x="10" y="618">    │   └── wrappy@1.0.2 </tspan>
<tspan x="10" y="634">    ├─┬ rc@1.2.0 </tspan>
<tspan x="10" y="650">    │ ├── deep-extend@0.4.1 </tspan>
<tspan x="10" y="666">    │ ├── ini@1.3.4 </tspan>
<tspan x="10" y="682">    │ └── strip-json-comments@2.0.1 </tspan>
<tspan x="10" y="698">    ├─┬ simple-get@1.4.3 </tspan>
<tspan x="10" y="714">    │ └── unzip-response@1.0.2 </tspan>
<tspan x="10" y="730">    ├─┬ tar-fs@1.15.2 </tspan>
<tspan x="10" y="746">    │ ├── chownr@1.0.1 </tspan>
<tspan x="10" y="762">    │ ├─┬ mkdirp@0.5.1 </tspan>
<tspan x="10" y="778">    │ │ └── minimist@0.0.8 </tspan>
<tspan x="10" y="794">    │ └─┬ tar-stream@1.5.2 </tspan>
<tspan x="10" y="810">    │   └── bl@1.2.0 </tspan>
<tspan x="10" y="826">    ├── tunnel-agent@0.4.3 </tspan>
<tspan x="10" y="842">    └── xtend@4.0.1</tspan>
</text>
</svg>
